<?xml version="1.0" encoding="iso-8859-1"?>
<!-- Generator: Adobe Illustrator 19.0.0, SVG Export Plug-In . SVG Version: 6.00 Build 0)  -->
<svg version="1.1" id="Layer_1" xmlns="http://www.w3.org/2000/svg" xmlns:xlink="http://www.w3.org/1999/xlink" x="0px" y="0px"
	 viewBox="0 0 505 505" style="enable-background:new 0 0 505 505;" xml:space="preserve">
<circle style="fill:#90DFAA;" cx="252.5" cy="252.5" r="252.5"/>
<polygon style="fill:#FFFFFF;" points="325.6,86.1 325.6,139.7 379.1,139.7 379.1,418.9 125.9,418.9 125.9,86.1 "/>
<polygon style="fill:#E6E9EE;" points="325.6,86.1 379.1,139.7 325.6,139.7 "/>
<g>
	<path style="fill:#ACB3BA;" d="M164.9,295.4c-1.8-6.9-2.6-14.1-2.6-21.3c0-40.9,29-76.6,69-85l3.9,18.8
		c-31.1,6.5-53.7,34.3-53.7,66.1c0,5.6,0.7,11.2,2.1,16.6L164.9,295.4z"/>
	<path style="fill:#ACB3BA;" d="M249,360.9c-26.2,0-50.7-11.7-67.3-32l14.9-12.1c12.9,15.8,32,24.9,52.4,24.9s39.5-9.1,52.4-24.9
		l14.9,12.1C299.8,349.2,275.2,360.9,249,360.9z"/>
	<path style="fill:#ACB3BA;" d="M333.2,295.4l-18.6-4.7c1.4-5.4,2.1-11,2.1-16.6c0-31.8-22.6-59.6-53.7-66.1l3.9-18.8
		c40,8.3,69,44.1,69,85C335.8,281.3,334.9,288.5,333.2,295.4z"/>
</g>
<circle style="fill:#84DBFF;" cx="249" cy="197" r="28.4"/>
<path style="fill:#FFFFFF;" d="M257.6,209.5l-2.6-6.1h-11.8l-2.7,6.1h-6.7l12.2-28.2h6.1l12.2,28.2H257.6z M249.1,189.7l-3.6,8.2
	h7.1L249.1,189.7z"/>
<circle style="fill:#324A5E;" cx="320.1" cy="308.6" r="28.4"/>
<circle style="fill:#FF7058;" cx="179" cy="308.6" r="28.4"/>
<g>
	<path style="fill:#FFFFFF;" d="M321.2,322.7h-12.3v-28.1h10.9c1.9,0,3.5,0.2,4.9,0.7s2.4,1.1,3.1,1.8c1.3,1.4,1.9,3.1,1.9,4.9
		c0,2.2-0.7,3.8-2.1,4.9c-0.5,0.4-0.8,0.6-1,0.7s-0.5,0.2-1,0.5c1.7,0.4,3.1,1.2,4.2,2.4c1,1.2,1.5,2.7,1.5,4.4c0,2-0.7,3.7-2,5.2
		C327.8,321.8,325.1,322.7,321.2,322.7z M315.2,306h3c1.7,0,3-0.2,3.9-0.6c0.8-0.4,1.3-1.2,1.3-2.4c0-1.2-0.4-2.1-1.2-2.5
		c-0.8-0.4-2.1-0.6-3.9-0.6h-3v6.1H315.2z M315.2,317.4h4.3c1.8,0,3.1-0.2,4-0.7c0.9-0.4,1.3-1.3,1.3-2.6c0-1.3-0.5-2.2-1.4-2.6
		c-1-0.4-2.5-0.6-4.6-0.6h-3.7v6.5H315.2z"/>
	<path style="fill:#FFFFFF;" d="M178.8,315.8c3.1,0,5.6-1.2,7.6-3.7l4,4.1c-3.2,3.6-6.9,5.4-11.3,5.4s-7.9-1.4-10.7-4.1
		s-4.2-6.2-4.2-10.3s1.4-7.6,4.3-10.4c2.9-2.8,6.3-4.2,10.5-4.2c4.6,0,8.5,1.8,11.6,5.3l-3.9,4.4c-2-2.5-4.4-3.7-7.4-3.7
		c-2.4,0-4.4,0.8-6,2.3c-1.7,1.5-2.5,3.6-2.5,6.2s0.8,4.7,2.4,6.3C174.6,315.1,176.6,315.8,178.8,315.8z"/>
</g>
<g>
</g>
<g>
</g>
<g>
</g>
<g>
</g>
<g>
</g>
<g>
</g>
<g>
</g>
<g>
</g>
<g>
</g>
<g>
</g>
<g>
</g>
<g>
</g>
<g>
</g>
<g>
</g>
<g>
</g>
</svg>
